<?xml version="1.0" encoding="utf-8"?>
<!-- Generator: Adobe Illustrator 28.0.0, SVG Export Plug-In . SVG Version: 6.00 Build 0)  -->
<svg version="1.1" id="Calque_1" xmlns="http://www.w3.org/2000/svg" xmlns:xlink="http://www.w3.org/1999/xlink" x="0px" y="0px"
	 viewBox="0 0 500 500" style="enable-background:new 0 0 500 500;" xml:space="preserve">
<style type="text/css">
	.st0{fill:#263238;stroke:#263238;stroke-linecap:round;stroke-linejoin:round;}
	.st1{fill:#CDEAF2;stroke:#263238;stroke-linecap:round;stroke-linejoin:round;}
	.st2{fill:#FFFFFF;stroke:#263238;stroke-linecap:round;stroke-linejoin:round;}
</style>
<g>
	<g id="freepik--Cloud--inject-4">
		<path class="st0" d="M401,164.7c7.3-39-18.4-76.6-57.4-83.9c-18.5-3.5-37.6,0.4-53.2,10.9c-20.4-49.5-77-73.2-126.6-52.8
			c-36.3,15-60.1,50.4-60.1,89.7c0,1.2,0,2.4,0,3.6c-33.5,9.6-53,44.5-43.4,78c6.9,24,27.3,41.8,52,45.2v0.7h285.5
			c25.3-0.9,45.1-22.1,44.2-47.4C441.3,185.8,423.7,167,401,164.7L401,164.7z"/>
		<path class="st1" d="M401,156.1c7.3-39-18.4-76.6-57.4-83.9c-18.5-3.5-37.6,0.4-53.2,10.9c-20.4-49.5-77-73.2-126.6-52.8
			c-36.3,15-60.1,50.4-60.1,89.7c0,1.2,0,2.4,0,3.6c-33.5,9.6-53,44.5-43.4,78c6.9,24,27.3,41.8,52,45.2v0.7h285.5
			c25.3-0.9,45.1-22.1,44.2-47.4C441.3,177.2,423.7,158.4,401,156.1z"/>
	</g>
	<polygon class="st0" points="294.6,192.2 244.3,128.9 194,192.2 213.7,192.2 213.7,287.4 274.9,287.4 274.9,192.2 	"/>
	<polygon class="st2" points="294.6,188.1 244.3,124.8 194,188.1 213.7,188.1 213.7,283.3 274.9,283.3 274.9,188.1 	"/>
	<rect x="137.9" y="272.6" class="st2" width="204.4" height="204.4"/>
	<rect x="147.4" y="282.1" class="st0" width="185.4" height="185.4"/>
	<path class="st2" d="M289.8,344.5l-43.2,45.2l-33.7-9.4c-3.4-0.9-7-0.3-9.8,1.8l-55.7,40.5v45.1h185.4v-95.4l-26.5-27.7
		c-4.4-4.5-11.6-4.7-16.2-0.3C290,344.3,289.9,344.4,289.8,344.5z"/>
	<circle class="st2" cx="216.2" cy="332" r="23.4"/>
</g>
</svg>
